HIERARCHY
ROOT root
{
	OFFSET 0.000000 0.000000 0.000000
	CHANNELS 6 Xposition Yposition Zposition Zrotation Yrotation Xrotation
	JOINT lhip
	{
		OFFSET 0.058581 -0.082280 -0.017664
		CHANNELS 3 Zrotation Yrotation Xrotation
		JOINT lknee
		{
			OFFSET 0.043451 -0.386469 0.008037
			CHANNELS 3 Zrotation Yrotation Xrotation
			JOINT lankle
			{
				OFFSET -0.014790 -0.426874 -0.037428
				CHANNELS 3 Zrotation Yrotation Xrotation
				JOINT ltoe
				{
					OFFSET 0.041054 -0.060286 0.122042
					CHANNELS 3 Zrotation Yrotation Xrotation
					End Site
					{
						OFFSET 0.000000 0.000000 0.000000
					}
				}
			}
		}
	}
	JOINT rhip
	{
		OFFSET -0.060310 -0.090513 -0.013543
		CHANNELS 3 Zrotation Yrotation Xrotation
		JOINT rknee
		{
			OFFSET -0.043257 -0.383688 -0.004843
			CHANNELS 3 Zrotation Yrotation Xrotation
			JOINT rankle
			{
				OFFSET 0.019056 -0.420046 -0.034562
				CHANNELS 3 Zrotation Yrotation Xrotation
				JOINT rtoe
				{
					OFFSET -0.034840 -0.062106 0.130323
					CHANNELS 3 Zrotation Yrotation Xrotation
					End Site
					{
						OFFSET 0.000000 0.000000 0.000000
					}
				}
			}
		}
	}
	JOINT lowerback
	{
		OFFSET 0.004439 0.124404 -0.038385
		CHANNELS 3 Zrotation Yrotation Xrotation
		JOINT upperback
		{
			OFFSET 0.004488 0.137956 0.026820
			CHANNELS 3 Zrotation Yrotation Xrotation
			JOINT chest
			{
				OFFSET -0.002265 0.056032 0.002855
				CHANNELS 3 Zrotation Yrotation Xrotation
				JOINT lowerneck
				{
					OFFSET -0.013390 0.211636 -0.033468
					CHANNELS 3 Zrotation Yrotation Xrotation
					JOINT upperneck
					{
						OFFSET 0.010113 0.088937 0.050410
						CHANNELS 3 Zrotation Yrotation Xrotation
						End Site
						{
							OFFSET 0.000000 0.000000 0.000000
						}
					}
				}
				JOINT lclavicle
				{
					OFFSET 0.071702 0.114000 -0.018898
					CHANNELS 3 Zrotation Yrotation Xrotation
					JOINT lshoulder
					{
						OFFSET 0.122921 0.045205 -0.019046
						CHANNELS 3 Zrotation Yrotation Xrotation
						JOINT lelbow
						{
							OFFSET 0.255332 -0.015649 -0.022946
							CHANNELS 3 Zrotation Yrotation Xrotation
							JOINT lwrist
							{
								OFFSET 0.265709 0.012698 -0.007375
								CHANNELS 3 Zrotation Yrotation Xrotation
								End Site
								{
									OFFSET 0.000000 0.000000 0.000000
								}
							}
						}
					}
				}
				JOINT rclavicle
				{
					OFFSET -0.082954 0.112472 -0.023707
					CHANNELS 3 Zrotation Yrotation Xrotation
					JOINT rshoulder
					{
						OFFSET -0.113228 0.046853 -0.008472
						CHANNELS 3 Zrotation Yrotation Xrotation
						JOINT relbow
						{
							OFFSET -0.260127 -0.014369 -0.031269
							CHANNELS 3 Zrotation Yrotation Xrotation
							JOINT rwrist
							{
								OFFSET -0.269108 0.006794 -0.006027
								CHANNELS 3 Zrotation Yrotation Xrotation
								End Site
								{
									OFFSET 0.000000 0.000000 0.000000
								}
							}
						}
					}
				}
			}
		}
	}
}
MOTION
Frames: 8
Frame Time: 0.033333
0.281331 0.526659 0.939841 13.846244 -8.627811 94.605044 20.116111 1.168387 -25.550440 -4.081849 -5.627951 30.466787 -3.826509 5.423901 -0.226956 0.000000 -0.000000 0.000000 -15.178765 -5.046653 -24.014107 2.443601 1.398075 48.194053 1.456224 -8.991556 -25.617685 0.000000 -0.000000 0.000000 2.460989 0.598936 29.259624 3.788042 0.742068 10.139251 2.434860 2.315282 -2.405385 -4.775997 3.367186 -18.898144 -5.086229 -2.163626 -2.953890 -30.667686 3.091846 -0.314583 -51.885255 6.569734 4.196928 11.158415 -52.433559 10.739225 11.536743 -3.274751 -7.481209 32.855431 12.659527 4.423706 29.007728 13.099491 5.539756 -51.448613 70.302128 -21.038559 1.392969 10.217369 30.366603 
0.333546 0.534952 0.928253 12.594575 -7.773083 95.053341 21.945595 1.719037 -25.124860 -3.964794 -6.929726 30.763792 -3.965596 5.986410 2.247852 0.000000 -0.000000 0.000000 -17.457340 -4.857656 -24.356113 2.368765 2.772911 47.971858 1.442867 -9.843658 -26.292391 0.000000 -0.000000 0.000000 3.092797 0.286907 29.799852 3.692478 2.580292 9.460189 2.849920 2.765740 -2.857437 -5.294375 2.143774 -19.305001 -5.730781 -1.466005 -3.176362 -31.149319 2.991464 0.240345 -51.551986 6.012143 5.558512 8.715005 -53.272340 16.924779 10.060707 -4.533835 -6.718632 32.828914 15.431870 6.435690 28.049528 14.894456 3.591424 -32.859589 57.138895 -9.159711 2.708389 9.975160 23.797225 
0.389934 0.544339 0.920973 11.389974 -7.215481 95.515573 21.944951 1.323641 -24.812769 -5.459248 -10.344855 32.624318 -7.363535 3.092169 3.800010 0.000000 -0.000000 0.000000 -19.831852 -4.499321 -24.762476 1.337293 4.775458 47.007550 3.061659 -9.142306 -24.905998 0.000000 -0.000000 0.000000 4.528553 0.279310 29.995315 3.216162 4.162014 9.276053 2.499655 2.906258 -2.726213 -5.062747 0.892328 -20.447815 -6.288334 -1.229458 -4.238246 -31.136902 1.760703 1.230261 -51.104608 4.888473 7.477750 8.724822 -53.322181 17.915023 10.370924 -5.685019 -6.249644 31.893229 17.561557 6.544584 27.690026 16.780776 0.438642 -24.609820 41.491303 -15.062595 0.814604 9.739684 10.447307 
0.453872 0.552131 0.915453 10.865991 -6.755156 95.972768 20.476396 1.426705 -25.374696 -7.366063 -11.570232 36.584420 -14.140258 0.606447 -0.245830 0.000000 -0.000000 0.000000 -22.782456 -4.985487 -23.192308 -0.893499 5.425102 42.812220 5.487402 -7.067907 -22.413979 0.000000 -0.000000 0.000000 6.212704 0.747367 30.006086 2.955116 4.245407 8.873707 2.442474 2.937582 -2.841009 -5.174489 0.839999 -19.994575 -5.872539 -1.911445 -6.725657 -30.862566 0.863230 1.236100 -51.587396 5.213496 8.598239 9.245667 -52.708408 17.128435 13.184789 -6.328811 -6.968155 31.321055 19.194839 6.130489 26.587878 17.630481 -4.021257 -22.020853 26.089891 -26.986888 -7.616131 8.857257 -0.030908 
0.521846 0.557096 0.912825 10.098615 -6.170874 96.683063 18.995055 2.062697 -25.826319 -9.468723 -7.837935 39.326576 -10.698498 -1.116167 -11.435019 0.000000 -0.000000 0.000000 -25.601198 -5.597517 -21.555726 -2.506371 7.397584 37.940620 9.022166 -5.644995 -17.140208 0.000000 -0.000000 0.000000 7.396578 1.677372 29.156466 3.376167 4.111634 7.890483 2.596493 3.394925 -2.306208 -5.200014 0.540568 -18.973619 -6.167324 -2.099282 -8.269180 -30.190249 1.325822 1.544067 -51.928065 4.984406 9.043237 6.754068 -52.597979 18.354418 11.000329 -5.839931 -9.956561 30.974207 17.382045 5.636291 24.764965 18.695048 -8.455333 -23.448762 16.457727 -39.352987 -11.846115 6.033328 -4.288888 
0.592661 0.561284 0.912452 10.168956 -5.815945 97.029140 15.724042 2.803178 -27.427068 -10.583826 -2.493219 42.703012 -4.664945 0.064862 -18.920377 0.000000 -0.000000 0.000000 -27.823825 -4.970611 -20.315751 -4.736672 10.244332 34.612044 11.405002 -7.487200 -8.159481 0.000000 -0.000000 0.000000 8.307309 1.462498 28.119231 3.957207 3.784993 6.120353 2.545030 3.355595 -0.445493 -4.776782 -1.338094 -18.810488 -6.329128 -0.110800 -8.583266 -29.743551 2.225874 2.101831 -51.759074 4.476513 8.591271 4.643639 -52.369782 19.207956 11.875530 -5.844014 -11.253759 31.161118 14.834196 5.334526 22.425273 18.677839 -11.442941 -27.594052 13.680754 -49.488134 -11.661547 5.019483 -6.267173 
0.660186 0.565473 0.916010 11.162440 -4.817032 96.657308 12.123798 3.500007 -28.237206 -10.700856 -0.795202 45.141347 0.504672 1.383614 -22.863793 0.000000 -0.000000 0.000000 -27.806413 -4.535509 -19.704821 -6.786510 11.196863 33.321977 9.008424 -12.156317 2.678637 0.000000 -0.000000 0.000000 9.101773 0.809109 28.070158 4.788404 3.297240 4.613089 3.178222 2.730283 0.427011 -4.553407 -3.656128 -18.831792 -6.188416 2.989797 -7.777446 -29.130520 2.768591 2.666932 -52.018632 5.077534 7.329048 3.384358 -52.201069 19.649538 11.152999 -5.520054 -12.557695 29.857470 12.549425 3.938910 21.935805 16.998601 -11.967230 -32.700199 15.438620 -54.761929 -7.881504 5.662601 -6.458781 
0.720841 0.568012 0.923241 11.047073 -4.010965 96.345439 9.119043 2.002239 -27.118740 -11.552849 -1.849213 45.142473 3.730023 3.238003 -25.681239 0.000000 -0.000000 0.000000 -26.371324 -4.290509 -21.284753 -5.363609 12.508051 36.447328 5.272330 -13.340728 3.816158 0.000000 -0.000000 0.000000 8.995517 0.774787 27.463349 5.598519 2.832498 4.088382 3.206653 2.148677 1.371019 -3.648086 -3.393097 -19.568797 -6.653340 3.502395 -6.491410 -28.391579 3.449141 2.543458 -51.177982 5.835652 6.201171 2.444967 -51.349373 19.911183 9.969957 -5.570829 -13.396062 29.433720 10.877911 3.002215 22.227941 16.067495 -12.102228 -39.486109 17.993887 -58.928586 -4.619383 6.528085 -8.144604 
